<svg class="border shadow-md" viewBox="0 0 1545.28 869.22" style="width: 1545.28px; height: 869.22px;" xmlns="http://www.w3.org/2000/svg" preserveAspectRatio="none"><rect class="bg" id="bg" x="0" y="0" width="1545.28" height="869.22" fill="#ffffff"/><g transform="rotate(0 772.64 434.61)"><path d="M -872.64 -56.92 S -446.32 -100.38&#10;            0.00 -56.92 268.64 -100.38&#10;            872.64 -56.92 1298.96 -100.38&#10;            1745.28 -56.92 2098.92 -119.92&#10;            2617.92 -56.92 h 110 V 1069.22 H -872.64 Z" fill="#4B75FC" id="-1"/><path d="M -872.64 30.00 S -639.00 -56.00&#10;            0.00 30.00 152.64 -56.00&#10;            872.64 30.00 1298.96 -27.00&#10;            1745.28 30.00 2171.60 -13.46&#10;            2617.92 30.00 h 110 V 1069.22 H -872.64 Z" fill="#486ff1" id="0"/><path d="M -872.64 116.92 S -665.00 73.46&#10;            0.00 116.92 324.64 73.46&#10;            872.64 116.92 1298.96 73.46&#10;            1745.28 116.92 1749.92 73.46&#10;            2617.92 116.92 h 110 V 1069.22 H -872.64 Z" fill="#4569e6" id="1"/><path d="M -872.64 203.84 S -446.32 160.38&#10;            0.00 203.84 426.32 160.38&#10;            872.64 203.84 1015.28 139.84&#10;            1745.28 203.84 2171.60 157.84&#10;            2617.92 203.84 h 110 V 1069.22 H -872.64 Z" fill="#4263db" id="2"/><path d="M -872.64 290.77 S -446.32 247.30&#10;            0.00 290.77 426.32 214.77&#10;            872.64 290.77 1298.96 247.30&#10;            1745.28 290.77 2171.60 247.30&#10;            2617.92 290.77 h 110 V 1069.22 H -872.64 Z" fill="#3f5dd0" id="3"/><path id="4" d="M -872.64 377.69 S -446.32 304.69&#10;            0.00 377.69 426.32 334.23&#10;            872.64 377.69 1298.96 313.69&#10;            1745.28 377.69 2171.60 334.23&#10;            2617.92 377.69 h 110 V 1069.22 H -872.64 Z" fill="#3c57c5"/><path id="5" d="M -872.64 464.61 S -682.00 383.61&#10;            0.00 464.61 413.64 381.61&#10;            872.64 464.61 1298.96 382.61&#10;            1745.28 464.61 2171.60 421.15&#10;            2617.92 464.61 h 110 V 1069.22 H -872.64 Z" fill="#3951ba"/><path id="6" d="M -872.64 551.53 S -446.32 483.53&#10;            0.00 551.53 31.64 499.53&#10;            872.64 551.53 1298.96 508.07&#10;            1745.28 551.53 2171.60 508.07&#10;            2617.92 551.53 h 110 V 1069.22 H -872.64 Z" fill="#364baf"/><path id="7" d="M -872.64 638.45 S -538.00 594.99&#10;            0.00 638.45 426.32 594.99&#10;            872.64 638.45 1131.28 590.45&#10;            1745.28 638.45 2021.92 594.99&#10;            2617.92 638.45 h 110 V 1069.22 H -872.64 Z" fill="#3345a4"/><path id="8" d="M -872.64 725.38 S -446.32 681.91&#10;            0.00 725.38 426.32 681.91&#10;            872.64 725.38 1298.96 681.91&#10;            1745.28 725.38 2171.60 681.91&#10;            2617.92 725.38 h 110 V 1069.22 H -872.64 Z" fill="#303f99"/><path id="9" d="M -872.64 812.30 S -597.00 768.84&#10;            0.00 812.30 300.64 730.30&#10;            872.64 812.30 1165.28 768.30&#10;            1745.28 812.30 1748.92 751.30&#10;            2617.92 812.30 h 110 V 1069.22 H -872.64 Z" fill="#2d398e"/></g></svg>